<svg xmlns="http://www.w3.org/2000/svg" viewBox="0 0 600 400" width="600" height="400">
  <defs>
    <linearGradient id="bg" x1="0%" y1="0%" x2="100%" y2="100%">
      <stop offset="0%" style="stop-color:#142838;stop-opacity:1" />
      <stop offset="100%" style="stop-color:#1E3D54;stop-opacity:1" />
    </linearGradient>
    <linearGradient id="accent" x1="0%" y1="0%" x2="100%" y2="100%">
      <stop offset="0%" style="stop-color:#4DB8B2;stop-opacity:0.2" />
      <stop offset="100%" style="stop-color:#4DB8B2;stop-opacity:0.05" />
    </linearGradient>
  </defs>
  <rect width="600" height="400" fill="url(#bg)" rx="16"/>
  <circle cx="500" cy="80" r="160" fill="url(#accent)"/>
  <circle cx="80" cy="340" r="100" fill="url(#accent)"/>
  <!-- Phone icon -->
  <g transform="translate(210, 100)">
    <rect x="0" y="0" width="180" height="200" rx="24" fill="none" stroke="#4DB8B2" stroke-width="3" opacity="0.3"/>
    <path d="M55 80 C55 71.7 61.7 65 70 65 L80 65 L85 85 L73 91 C79.3 104.3 89.7 114.7 103 121 L109 109 L129 114 L129 124 C129 132.3 122.3 139 114 139 C79.3 139 51 110.7 51 76 Z" fill="none" stroke="#4DB8B2" stroke-width="8" stroke-linecap="round" stroke-linejoin="round"/>
    <!-- Sound waves -->
    <path d="M120 90 C128 82 128 68 120 60" fill="none" stroke="#4DB8B2" stroke-width="5" stroke-linecap="round" opacity="0.7"/>
    <path d="M132 102 C146 86 146 54 132 38" fill="none" stroke="#4DB8B2" stroke-width="5" stroke-linecap="round" opacity="0.5"/>
  </g>
  <!-- Label -->
  <text x="300" y="340" text-anchor="middle" font-family="Inter, sans-serif" font-size="22" font-weight="700" fill="#4DB8B2" letter-spacing="1">Call Collection</text>
  <text x="300" y="368" text-anchor="middle" font-family="Inter, sans-serif" font-size="13" fill="#8BAFC4" letter-spacing="0.5">Professional debt recovery via phone</text>
</svg>
